<?xml version="1.0" encoding="UTF-8" standalone="no"?>
<!-- Created with Inkscape (http://www.inkscape.org/) -->

<svg
   width="341.02332mm"
   height="97.302505mm"
   viewBox="0 0 395.52026 112.85185"
   version="1.1"
   id="svg373"
   inkscape:version="1.2.1 (9c6d41e410, 2022-07-14)"
   sodipodi:docname="green-lizard-logo-full-light.svg"
   xmlns:inkscape="http://www.inkscape.org/namespaces/inkscape"
   xmlns:sodipodi="http://sodipodi.sourceforge.net/DTD/sodipodi-0.dtd"
   xmlns="http://www.w3.org/2000/svg"
   xmlns:svg="http://www.w3.org/2000/svg">
  <sodipodi:namedview
     id="namedview375"
     pagecolor="#505050"
     bordercolor="#ffffff"
     borderopacity="1"
     inkscape:showpageshadow="0"
     inkscape:pageopacity="0"
     inkscape:pagecheckerboard="true"
     inkscape:deskcolor="#505050"
     inkscape:document-units="mm"
     showgrid="false"
     inkscape:zoom="0.37282197"
     inkscape:cx="392.94895"
     inkscape:cy="150.20574"
     inkscape:window-width="1920"
     inkscape:window-height="1017"
     inkscape:window-x="-8"
     inkscape:window-y="-8"
     inkscape:window-maximized="1"
     inkscape:current-layer="svg318"
     showborder="true" />
  <defs
     id="defs370" />
  <g
     inkscape:label="Layer 1"
     inkscape:groupmode="layer"
     id="layer1">
    <svg
       viewBox="0 0 599.86624 171.15656"
       height="112.85156"
       width="395.51999"
       version="1.1"
       id="svg318">
      <g
         id="g767">
        <g
           transform="translate(0,50.431037)"
           id="g292">
          <g
             class="undefined-text-0"
             data-fill-palette-color="primary"
             id="text-0"
             transform="matrix(1.7737913,0,0,1.7737913,-3.7249615,67.341553)">
            <path
               d="m 27.2,-19.05 q -0.35,5.1 -2,8.87 -1.65,3.78 -3.97,6.33 -2.33,2.55 -5,3.8 -2.68,1.25 -5.08,1.25 v 0 Q 9.3,1.2 7.63,0.4 5.95,-0.4 4.73,-2.02 3.5,-3.65 2.8,-6.1 2.1,-8.55 2.1,-11.85 v 0 q 0,-6.45 1.85,-11.25 1.85,-4.8 4.68,-8 2.82,-3.2 6.05,-4.75 3.22,-1.55 6.02,-1.55 v 0 q 2,0 3.48,0.7 1.47,0.7 2.42,1.87 0.95,1.18 1.38,2.75 0.42,1.58 0.42,3.33 v 0 l -6.85,1.3 q -0.45,-2 -1.2,-2.85 -0.75,-0.85 -1.7,-0.85 v 0 q -1.25,0 -2.75,1.77 -1.5,1.78 -2.8,4.58 -1.3,2.8 -2.2,6.15 -0.9,3.35 -1,6.6 v 0 q 0,3.1 0.93,4.42 0.92,1.33 2.37,1.33 v 0 q 1,0 2.08,-0.5 1.07,-0.5 1.92,-1.42 0.85,-0.93 1.43,-2.16 0.57,-1.22 0.62,-2.67 v 0 l -5.35,0.8 0.95,-4.95 q 2.35,-0.3 4.6,-0.6 v 0 q 1.9,-0.25 4.03,-0.6 2.12,-0.35 3.72,-0.65 z m 6.05,17 -8.1,2.1 q 1.35,-6.65 2.6,-13 v 0 q 0.45,-2.7 1,-5.62 0.55,-2.93 1.02,-5.81 0.48,-2.87 0.9,-5.55 0.43,-2.67 0.68,-4.87 v 0 q 2.85,-0.9 6.15,-1.33 3.3,-0.42 6.55,-0.42 v 0 q 1.95,0 3.22,0.45 1.28,0.45 2,1.27 0.73,0.83 1.03,1.93 0.3,1.1 0.3,2.45 v 0 q 0,2 -0.7,3.92 -0.7,1.93 -1.88,3.65 -1.17,1.73 -2.7,3.15 -1.52,1.43 -3.27,2.33 v 0 q 0.9,2 1.92,4.37 1.03,2.38 1.93,4.53 v 0 q 1,2.5 2.05,5 v 0 l -7.75,2.7 q -1,-3.45 -1.8,-6.5 v 0 q -0.35,-1.25 -0.7,-2.58 -0.35,-1.32 -0.65,-2.5 -0.3,-1.17 -0.5,-2.07 -0.2,-0.9 -0.25,-1.4 v 0 l -0.65,0.2 q -0.3,1.6 -0.73,3.9 -0.42,2.3 -0.77,4.45 v 0 q -0.45,2.55 -0.9,5.25 z m 5.25,-27.55 -1.6,7.95 q 0.95,-0.1 2.32,-0.8 1.38,-0.7 2.63,-1.68 1.25,-0.97 2.15,-2.02 0.9,-1.05 0.9,-1.85 v 0 q 0,-0.55 -0.35,-0.88 -0.35,-0.32 -0.98,-0.5 -0.62,-0.17 -1.37,-0.22 -0.75,-0.05 -1.55,-0.05 v 0 q -0.55,0 -1.13,0.02 -0.57,0.03 -1.02,0.03 z m 25.2,27.15 -16.15,2.5 6.55,-35.55 15.8,-1.35 q -0.35,1.1 -0.6,2.25 v 0 q -0.25,0.95 -0.48,1.97 -0.22,1.03 -0.37,1.83 v 0 q -0.5,0.05 -1.43,0.07 -0.92,0.03 -1.97,0.05 -1.05,0.03 -2.13,0.03 -1.07,0 -1.87,0 v 0 l -1.75,8.95 q 1.55,-0.1 2.9,-0.15 v 0 q 1.1,-0.05 2.25,-0.05 1.15,0 1.7,-0.05 v 0 q -0.2,1.4 -0.38,2.75 -0.17,1.35 -0.42,2.75 v 0 q -0.5,0.05 -1.63,0.07 -1.12,0.03 -2.27,0.08 v 0 q -1.3,0.05 -2.85,0.1 v 0 l -1.7,9.2 7.3,-1.15 z m 17.04,0 -16.15,2.5 6.55,-35.55 15.8,-1.35 q -0.35,1.1 -0.6,2.25 v 0 q -0.25,0.95 -0.47,1.97 -0.23,1.03 -0.38,1.83 v 0 q -0.5,0.05 -1.42,0.07 -0.93,0.03 -1.98,0.05 -1.05,0.03 -2.12,0.03 -1.08,0 -1.88,0 v 0 l -1.75,8.95 q 1.55,-0.1 2.9,-0.15 v 0 q 1.1,-0.05 2.25,-0.05 1.15,0 1.7,-0.05 v 0 q -0.2,1.4 -0.37,2.75 -0.18,1.35 -0.43,2.75 v 0 q -0.5,0.05 -1.62,0.07 -1.13,0.03 -2.28,0.08 v 0 q -1.3,0.05 -2.85,0.1 v 0 l -1.7,9.2 7.3,-1.15 z m 8.1,1 -7.3,1.7 q 1.4,-7.05 2.7,-13.75 v 0 q 0.5,-2.8 1.08,-5.88 0.57,-3.07 1.07,-6.05 0.5,-2.97 0.93,-5.75 0.42,-2.77 0.67,-5.07 v 0 q 1.55,-0.1 3,-0.2 v 0 q 1.3,-0.1 2.65,-0.18 1.35,-0.07 2.4,-0.17 v 0 q 0.65,3.85 1.15,7.35 v 0 q 0.25,1.5 0.53,3.12 0.27,1.63 0.52,3.13 0.25,1.5 0.5,2.87 0.25,1.38 0.5,2.43 v 0 q 0.2,-1.05 0.45,-2.43 0.25,-1.37 0.55,-2.9 0.3,-1.52 0.63,-3.12 0.32,-1.6 0.62,-3.1 v 0 q 0.75,-3.5 1.55,-7.3 v 0 l 6.1,-0.75 q -1.7,7.5 -3,14.2 v 0 q -0.6,2.9 -1.17,5.85 -0.58,2.95 -1.08,5.7 -0.5,2.75 -0.85,5.07 -0.35,2.33 -0.55,3.93 v 0 q -0.15,0 -1.17,0.22 -1.03,0.23 -2.35,0.53 -1.33,0.3 -2.65,0.62 -1.33,0.33 -1.98,0.53 v 0 q -0.35,-4.05 -0.75,-7.7 v 0 q -0.15,-1.55 -0.35,-3.2 -0.2,-1.65 -0.37,-3.15 -0.18,-1.5 -0.35,-2.83 -0.18,-1.32 -0.33,-2.22 v 0 q -0.15,0.9 -0.4,2.2 -0.25,1.3 -0.5,2.77 -0.25,1.48 -0.5,3.05 -0.25,1.58 -0.55,3.08 v 0 q -0.65,3.55 -1.4,7.4 z"
               fill="#152232"
               data-fill-palette-color="primary"
               id="path273"
               style="fill:#ffffff" />
            <path
               d="m 122.94,-1.6 q -1.55,0 -3.27,0.1 -1.73,0.1 -3.48,0.3 -1.75,0.2 -3.42,0.52 -1.68,0.33 -3.03,0.78 v 0 q 0.3,-2.25 0.7,-5 0.4,-2.75 0.93,-5.7 0.52,-2.95 1.05,-5.95 0.52,-3 1.07,-5.75 v 0 q 1.25,-6.55 2.65,-13.35 v 0 l 8.75,-1.15 q -1.35,5.8 -2.6,11.3 v 0 q -0.55,2.35 -1.1,4.87 -0.55,2.53 -1.05,4.93 -0.5,2.4 -0.9,4.65 -0.4,2.25 -0.65,4 v 0 q 1.25,-0.1 2.68,-0.13 1.42,-0.02 2.52,-0.02 v 0 q 0.05,0.95 0.15,1.87 0.1,0.93 0.23,1.68 0.12,0.75 0.2,1.32 0.07,0.58 0.12,0.78 v 0 q -0.4,0 -0.77,-0.03 -0.38,-0.02 -0.78,-0.02 z m 9.2,0.6 q -0.45,0 -1.75,0.12 -1.3,0.13 -2.7,0.3 -1.4,0.18 -2.53,0.33 -1.12,0.15 -1.22,0.2 v 0 q 0.6,-2.15 1.2,-4.78 0.6,-2.62 1.22,-5.5 0.63,-2.87 1.2,-5.82 0.58,-2.95 1.13,-5.7 v 0 q 1.25,-6.4 2.45,-13.15 v 0 l 7.8,-1.25 q -1.3,6.7 -2.6,13.15 v 0 q -0.55,2.75 -1.13,5.7 -0.57,2.95 -1.1,5.85 -0.52,2.9 -1.05,5.62 -0.52,2.73 -0.92,4.93 z m 23.65,-1 q -0.45,0 -1.9,0.05 -1.45,0.05 -3.43,0.15 -1.98,0.1 -4.27,0.25 -2.3,0.15 -4.5,0.32 -2.2,0.18 -4.08,0.38 -1.87,0.2 -2.97,0.4 v 0 l 0.05,-7.3 14.2,-19.35 q -0.85,0 -2.41,0.17 -1.54,0.18 -3.12,0.38 -1.57,0.2 -2.72,0.4 v 0 l -1.2,0.1 0.95,-7.85 20.45,-1.45 -1.3,6.9 -13.65,19.4 q 1,0 2.67,-0.1 1.67,-0.1 3.48,-0.2 1.8,-0.1 3.9,-0.25 v 0 z m 18.39,1 q -1.25,0.2 -2.75,0.45 -1.5,0.25 -2.7,0.45 v 0 q 0.2,-1.65 0.4,-3.25 v 0 q 0.15,-1.4 0.28,-2.8 0.12,-1.4 0.22,-2.4 v 0 h -4.35 l -2,7.2 q -1.1,0.15 -2.6,0.32 -1.5,0.18 -2.8,0.33 v 0 q -1.6,0.2 -3.15,0.4 v 0 q 2,-6.65 3.95,-13.1 v 0 q 0.8,-2.7 1.68,-5.65 0.87,-2.95 1.75,-5.88 0.87,-2.92 1.67,-5.62 0.8,-2.7 1.4,-4.95 v 0 q 3.4,-0.25 6.93,-0.6 3.52,-0.35 6.87,-0.95 v 0 q -0.15,1.6 -0.32,3.97 -0.18,2.38 -0.33,5.18 -0.15,2.8 -0.3,5.85 -0.15,3.05 -0.3,6 v 0 q -0.25,6.9 -0.55,14.65 v 0 q -1.5,0.25 -3,0.4 z m -4.6,-25.1 -3.1,12.55 q 0.2,0 0.73,-0.03 0.52,-0.02 1.1,-0.05 0.57,-0.02 1.07,-0.05 0.5,-0.02 0.7,-0.07 v 0 q 0,-0.3 0.08,-1.03 0.07,-0.72 0.15,-1.65 0.07,-0.92 0.17,-2.02 0.1,-1.1 0.2,-2.15 v 0 q 0.2,-2.55 0.5,-5.5 v 0 l 0.3,-4.35 -0.75,0.05 z m 16.15,24.05 -8.1,2.1 q 1.35,-6.65 2.6,-13 v 0 q 0.45,-2.7 1,-5.62 0.55,-2.93 1.03,-5.81 0.47,-2.87 0.9,-5.55 0.42,-2.67 0.67,-4.87 v 0 q 2.85,-0.9 6.15,-1.33 3.3,-0.42 6.55,-0.42 v 0 q 1.95,0 3.23,0.45 1.27,0.45 2,1.27 0.72,0.83 1.02,1.93 0.3,1.1 0.3,2.45 v 0 q 0,2 -0.7,3.92 -0.7,1.93 -1.87,3.65 -1.18,1.73 -2.7,3.15 -1.53,1.43 -3.28,2.33 v 0 q 0.9,2 1.93,4.37 1.02,2.38 1.92,4.53 v 0 q 1,2.5 2.05,5 v 0 l -7.75,2.7 q -1,-3.45 -1.8,-6.5 v 0 q -0.35,-1.25 -0.7,-2.58 -0.35,-1.32 -0.65,-2.5 -0.3,-1.17 -0.5,-2.07 -0.2,-0.9 -0.25,-1.4 v 0 l -0.65,0.2 q -0.3,1.6 -0.72,3.9 -0.43,2.3 -0.78,4.45 v 0 q -0.45,2.55 -0.9,5.25 z m 5.25,-27.55 -1.6,7.95 q 0.95,-0.1 2.33,-0.8 1.37,-0.7 2.62,-1.68 1.25,-0.97 2.15,-2.02 0.9,-1.05 0.9,-1.85 v 0 q 0,-0.55 -0.35,-0.88 -0.35,-0.32 -0.97,-0.5 -0.63,-0.17 -1.38,-0.22 -0.75,-0.05 -1.55,-0.05 v 0 q -0.55,0 -1.12,0.02 -0.58,0.03 -1.03,0.03 z m 34.1,4.05 q 0,2.6 -0.75,5.52 -0.75,2.93 -2.1,5.8 -1.35,2.88 -3.33,5.51 -1.97,2.62 -4.47,4.59 -2.5,1.98 -5.48,3.18 -2.97,1.2 -6.32,1.2 v 0 q -0.7,0 -1.4,-0.07 -0.7,-0.08 -1.4,-0.18 v 0 q 1.35,-6.9 2.65,-13.45 v 0 q 0.5,-2.75 1.05,-5.73 0.55,-2.97 1.05,-5.87 0.5,-2.9 0.97,-5.55 0.48,-2.65 0.78,-4.8 v 0 q 2.15,-0.4 4.35,-0.75 2.2,-0.35 4.5,-0.35 v 0 q 2.7,0 4.57,0.85 1.88,0.85 3.05,2.35 1.18,1.5 1.73,3.5 0.55,2 0.55,4.25 z m -11.8,-3.9 q -0.55,2.95 -1.15,5.65 -0.6,2.7 -1.2,5.45 -0.6,2.75 -1.2,5.75 -0.6,3 -1.15,6.55 v 0 q 1.2,-0.8 2.32,-2.17 1.13,-1.38 2.13,-3.18 1,-1.8 1.82,-3.8 0.83,-2 1.43,-3.9 0.6,-1.9 0.92,-3.55 0.33,-1.65 0.33,-2.85 v 0 q 0,-1.85 -1.03,-2.9 -1.02,-1.05 -3.22,-1.05 z"
               fill="#5ebc67"
               data-fill-palette-color="accent"
               id="path275" />
          </g>
        </g>
        <g
           transform="translate(428.70968)"
           id="g316">
          <svg
             viewBox="0 0 171.15656 171.15656"
             height="171.15656"
             width="171.15656"
             version="1.1"
             id="svg314">
            <g
               id="icon-0">
              <svg
                 viewBox="0 0 171.15656 171.15656"
                 height="171.15656"
                 width="171.15656"
                 version="1.1"
                 id="svg311">
                <g
                   id="g300">
                  <path
                     d="M 0,85.578 C 0,38.314 38.315,0 85.578,0 c 47.264,0 85.578,38.315 85.579,85.578 0,47.264 -38.315,85.578 -85.579,85.579 C 38.314,171.157 0,132.842 0,85.578 Z m 85.578,79.239 c 43.763,0 79.239,-35.477 79.239,-79.239 0,-43.763 -35.477,-79.239 -79.239,-79.239 -43.763,0 -79.239,35.477 -79.239,79.239 0,43.763 35.477,79.239 79.239,79.239 z"
                     data-fill-palette-color="accent"
                     fill="#5ebc67"
                     stroke="transparent"
                     id="path298" />
                </g>
                <g
                   transform="translate(36.054287,42.806889)"
                   id="g309">
                  <svg
                     viewBox="0 0 99.047986 85.542781"
                     height="85.542778"
                     width="99.047989"
                     version="1.1"
                     id="svg307">
                    <svg
                       viewBox="18.19619 24.199999 68.31472 59"
                       xml:space="preserve"
                       x="0"
                       y="0"
                       height="85.542778"
                       width="99.047989"
                       class="icon-x-0"
                       data-fill-palette-color="accent"
                       id="x-0"
                       version="1.1"><path
                         d="M 85.2,36 81.4,35.9 83,34.6 c 0.6,-0.5 0.7,-1.4 0.2,-2 -0.5,-0.6 -1.4,-0.7 -2,-0.2 l -3.8,3.1 c 0,-0.1 -0.1,-0.2 -0.1,-0.3 -1.8,-2.9 -6.3,-9.8 -9,-10.6 -0.4,-0.1 -0.8,-0.2 -1.4,-0.2 -3.7,0 -12,2.2 -12.4,2.3 -0.1,0 -0.4,0.1 -0.9,0.1 -1,0 -2.4,-0.2 -3.4,-0.4 -0.4,-0.1 -0.8,-0.1 -1.2,-0.2 -0.7,-0.1 -1.6,-0.3 -2.6,-0.6 -2.5,-0.6 -5.9,-1.4 -9.7,-1.4 -6.4,0 -11.9,2.4 -16.2,7.1 -0.1,0.1 -3.1,3.2 -2.1,6 0.6,1.7 2.6,2.8 5.7,3 0.7,0.1 1.3,0.1 2,0.1 6.8,0 10.8,-3 12,-5.8 3.3,0.6 7.9,2.1 9,4.3 -0.5,1.5 -4.5,6.9 -6.6,9.3 h -0.6 l -3.1,-3.7 c -0.5,-0.6 -1.4,-0.7 -2,-0.2 -0.6,0.5 -0.7,1.4 -0.2,2 l 1,1.2 -3.2,-0.5 c -0.8,-0.1 -1.5,0.4 -1.6,1.2 -0.1,0.8 0.4,1.5 1.2,1.6 l 2.3,0.4 c -0.2,0.1 -0.5,0.3 -0.7,0.4 -0.6,0.4 -0.8,1.3 -0.4,2 0.3,0.4 0.7,0.6 1.2,0.6 0.3,0 0.6,-0.1 0.8,-0.2 5,-3.4 7.9,-1.4 8,-1.3 0.6,0.5 1.5,0.4 2,-0.2 0.5,-0.6 0.4,-1.5 -0.2,-2 0,0 -0.2,-0.2 -0.5,-0.3 3.4,-2 7.2,-4.2 7.9,-4.6 0.2,-0.1 0.5,-0.1 0.7,-0.1 2.3,0 5.2,2.6 6.4,5.3 -1.8,-0.5 -4.1,-1.1 -5.1,-1.1 -1,0 -1.4,0.5 -1.6,0.9 -0.2,0.4 -3.1,5.8 -3.3,10.9 H 49.2 L 45.9,57 c -0.5,-0.6 -1.4,-0.7 -2,-0.2 -0.6,0.5 -0.7,1.4 -0.2,2 l 1,1.2 -3.2,-0.5 c -0.8,-0.1 -1.5,0.4 -1.6,1.2 -0.1,0.8 0.4,1.5 1.2,1.6 l 2.3,0.4 c -0.2,0.1 -0.5,0.3 -0.7,0.4 -0.6,0.4 -0.8,1.3 -0.4,2 0.3,0.4 0.7,0.6 1.2,0.6 0.3,0 0.6,-0.1 0.8,-0.2 5,-3.4 7.9,-1.4 8,-1.3 0.6,0.5 1.5,0.4 2,-0.2 0.5,-0.6 0.4,-1.5 -0.2,-2 C 54,61.9 53.4,61.5 52.4,61.2 54.1,59 56,57.1 56.7,56.8 l 3,1.2 c -0.2,3.6 -3.6,7.9 -6,9.3 -2.5,1.4 -5.6,2.1 -8.7,2.1 -1.2,0 -2.4,-0.1 -3.6,-0.3 -1.9,-0.3 -3.5,-0.8 -5,-1.3 -2.2,-0.7 -4.2,-1.3 -6.5,-1.3 -1.3,0 -2.6,0.2 -4,0.6 -3.1,0.9 -6.5,4.1 -6.6,7.7 -0.1,2.5 0.8,4.9 2.4,6.6 1.1,1.2 2.5,1.8 3.7,1.8 0.6,0 1.2,-0.4 1.4,-1 0.2,-0.6 -0.1,-1.3 -0.6,-1.6 -1.2,-0.7 -2,-2.5 -1.8,-4.3 0.1,-1 0.6,-2.7 2.7,-3.3 0.8,-0.3 1.7,-0.4 2.5,-0.4 2.2,0 4.3,0.9 6.6,1.9 l 0.5,0.2 c 4.6,2 8.1,2.8 11.8,2.8 2.5,0 5.1,-0.4 8,-1.2 6,-1.7 10.8,-5.9 15.5,-13.4 0.8,0.4 2,1.3 2.5,1.9 -0.4,1.4 -2.5,5 -4.5,7.9 -0.2,0.3 -0.3,0.6 -0.2,0.9 -0.4,0.1 -0.6,0.1 -0.6,0.2 -0.7,0.3 -1.1,1 -0.9,1.8 0.2,0.7 1,1.1 1.8,0.9 0.2,0 3.8,-1.1 7.8,4.2 0.3,0.4 0.7,0.6 1.1,0.6 0.3,0 0.6,-0.1 0.8,-0.3 0.6,-0.5 0.8,-1.4 0.3,-2 -0.2,-0.3 -0.5,-0.6 -0.7,-0.9 l 2.7,0.5 h 0.2 c 0.7,0 1.3,-0.5 1.4,-1.2 0.1,-0.8 -0.4,-1.5 -1.2,-1.6 L 78.8,75 80.5,74 c 0.7,-0.4 0.9,-1.3 0.5,-1.9 -0.4,-0.7 -1.3,-0.9 -1.9,-0.5 l -4.5,2.7 c -0.5,-0.2 -0.9,-0.4 -1.4,-0.5 7.8,-5.2 9.9,-9.8 9.9,-10 0.2,-0.5 0.1,-1 -0.2,-1.4 C 80.5,59 76,56 74.3,55 74.2,42.6 67.7,35.2 64.1,32.2 l 2.1,-0.7 6.7,4.2 c -0.8,0.2 -1.3,0.4 -1.4,0.5 -0.7,0.4 -0.9,1.2 -0.6,1.9 0.4,0.7 1.2,1 1.9,0.6 0.1,-0.1 3.7,-1.7 8.4,3 0.3,0.3 0.6,0.4 1,0.4 0.4,0 0.7,-0.1 1,-0.4 0.5,-0.6 0.5,-1.5 0,-2 -0.3,-0.3 -0.6,-0.5 -0.9,-0.8 l 2.8,0.1 c 0.8,0 1.4,-0.6 1.4,-1.4 C 86.6,36.7 86,36 85.2,36 Z"
                         fill="#5ebc67"
                         data-fill-palette-color="accent"
                         id="path302" /></svg>
                  </svg>
                </g>
              </svg>
            </g>
          </svg>
        </g>
      </g>
    </svg>
  </g>
</svg>
